<svg xmlns="http://www.w3.org/2000/svg" width="32.299" height="18.841" viewBox="0 0 32.299 18.841">
  <g id="Group_4580" data-name="Group 4580" transform="translate(-14854 8258)">
    <path id="path4256" d="M-445.26,249.694c-1.955-.488-3.043-2.042-3.047-4.347a3.747,3.747,0,0,1,.236-1.564,4.192,4.192,0,0,1,3.216-2.361c.782-.161,1.023-.333,1.023-.732a3.863,3.863,0,0,1,.207-.829,5.764,5.764,0,0,1,2.5-3.265,5.2,5.2,0,0,1,2.9-.65,4.734,4.734,0,0,1,4.037,1.755l.705.741.632-.219c3.058-1.058,6.106.743,6.352,3.754l.067.824.6.216a3.4,3.4,0,0,1,2.382,3.812,3.252,3.252,0,0,1-1.6,2.73l-.433.232-9.625.019c-7.4.014-9.747-.012-10.154-.114Z" transform="translate(15309.731 -8488.971)" fill="#094ab1"/>
    <path id="path4248" d="M-515.245,203.779a4.779,4.779,0,0,1-2.917-2.395,3,3,0,0,1-.339-1.878,3.189,3.189,0,0,1,.284-1.8,4.247,4.247,0,0,1,2.871-2.275,1.39,1.39,0,0,0,.572-.241,2.988,2.988,0,0,0,.1-.782,5.358,5.358,0,0,1,3.713-4.911,6.024,6.024,0,0,1,3.813.227c.393.155.349.188,1.181-.886a7.586,7.586,0,0,1,2.3-1.828,6.228,6.228,0,0,1,2.883-.632,6.969,6.969,0,0,1,6.655,4.758c.311.917.3,1.174-.071,1.181a6.535,6.535,0,0,0-1.019.193l-.728.187-.664-.654a6.641,6.641,0,0,0-7.525-.982,6.217,6.217,0,0,0-2.5,2.17,7.652,7.652,0,0,0-1.022,2.237c0,.221-.182.331-.957.582a5.012,5.012,0,0,0-3.8,4.857,6.009,6.009,0,0,0,.521,2.439c.114.22.178.43.141.466A21.925,21.925,0,0,1-515.245,203.779Z" transform="translate(15372.5 -8444.384)" fill="#094ab1"/>
  </g>
</svg>
