<svg id="Layer_1" data-name="Layer 1" xmlns="http://www.w3.org/2000/svg" viewBox="0 0 60 60"><defs><style>.cls-1{fill:#318ec8;}</style></defs><title>document-signature-request_icon</title><path class="cls-1" d="M55.62,4H4.38A2.39,2.39,0,0,0,2,6.39V53.61A2.39,2.39,0,0,0,4.38,56H55.62A2.39,2.39,0,0,0,58,53.61V6.39A2.39,2.39,0,0,0,55.62,4Zm0,50.12H4.39a.51.51,0,0,1-.51-.51V6.4a.51.51,0,0,1,.5-.52H55.62a.51.51,0,0,1,.5.51V53.6A.51.51,0,0,1,55.62,54.12Z"/><path class="cls-1" d="M42.4,16.24h0a15.65,15.65,0,0,0-5.24-3.18,18.65,18.65,0,0,0-6.4-1.14h-.33a17.08,17.08,0,0,0-6.8,1.41A17.7,17.7,0,0,0,18,17.17a17.92,17.92,0,0,0-3.76,5.73A18.38,18.38,0,0,0,12.9,30a19.3,19.3,0,0,0,1.29,7,17.56,17.56,0,0,0,3.64,5.74,16.77,16.77,0,0,0,5.65,3.91,18.08,18.08,0,0,0,7.07,1.43h.23a17.17,17.17,0,0,0,8-1.84A19.17,19.17,0,0,0,45,41.32l.44-.52-1.73-1.52-.44.54a17.31,17.31,0,0,1-5.42,4.27,15.25,15.25,0,0,1-6.92,1.67h-.1a15.54,15.54,0,0,1-6.3-1.24,14.63,14.63,0,0,1-4.89-3.41,15.11,15.11,0,0,1-3.17-5A16.7,16.7,0,0,1,15.29,30,15.84,15.84,0,0,1,16.43,24a16.44,16.44,0,0,1,3.18-5,15.25,15.25,0,0,1,4.82-3.48,14.8,14.8,0,0,1,6-1.28h.14a16.37,16.37,0,0,1,5.64,1,13.75,13.75,0,0,1,4.49,2.72,12.32,12.32,0,0,1,4,9.23,16.93,16.93,0,0,1-.45,3.88,10.48,10.48,0,0,1-1.33,3.27,7,7,0,0,1-2.25,2.24,6.14,6.14,0,0,1-3.29.84,2.71,2.71,0,0,1-1.59-.46,1.8,1.8,0,0,1-.56-1.55,8.27,8.27,0,0,1,.12-1.22c.1-.52.2-1,.31-1.38l3.41-11.9H36.67l-.53,1.9a5.22,5.22,0,0,0-1.06-1.42,5.37,5.37,0,0,0-3.79-1.32h-.05a7.18,7.18,0,0,0-4.11,1.29A11.38,11.38,0,0,0,24,24.51a16.41,16.41,0,0,0-2.59,8.6,8.66,8.66,0,0,0,.33,2.38,6,6,0,0,0,1.06,2.12,5.71,5.71,0,0,0,1.86,1.52,5.89,5.89,0,0,0,2.53.58h.21a6.48,6.48,0,0,0,2.34-.44A9.51,9.51,0,0,0,31.7,38.2a8,8,0,0,0,1.36-1.3,3.42,3.42,0,0,0,1,1.67,5,5,0,0,0,3.33,1.14A8.59,8.59,0,0,0,44.64,36a12.47,12.47,0,0,0,1.83-4,18.73,18.73,0,0,0,.63-4.88,15.08,15.08,0,0,0-1.23-6.07A14.3,14.3,0,0,0,42.4,16.24ZM34.78,26.36a13.27,13.27,0,0,1-.48,3.07h0a17.11,17.11,0,0,1-1.45,3.71,11.17,11.17,0,0,1-2.31,3.07A4.14,4.14,0,0,1,27.6,37.4h0a3.25,3.25,0,0,1-2.8-1.15,5,5,0,0,1-.95-3.09,14.49,14.49,0,0,1,.52-3.65A14.2,14.2,0,0,1,25.87,26a9.41,9.41,0,0,1,2.37-2.62,5.1,5.1,0,0,1,3-1h.05a4,4,0,0,1,1.59.31,2.84,2.84,0,0,1,1,.82,3.59,3.59,0,0,1,.64,1.28A5.7,5.7,0,0,1,34.78,26.36Z"/></svg>