<svg xmlns="http://www.w3.org/2000/svg" width="21" height="21.001" viewBox="0 0 21 21.001">
  <g id="Group_4581" data-name="Group 4581" transform="translate(-14818 8260)">
    <path id="Path_1067" data-name="Path 1067" d="M9.742,179.665l-5.38-3.47a.482.482,0,0,0-.564.03L.18,179.136a.482.482,0,0,0,.041.781l5.38,3.47a.482.482,0,0,0,.564-.03l3.617-2.911A.482.482,0,0,0,9.742,179.665Z" transform="translate(14818 -8427.742)" fill="#1587ea"/>
    <path id="Path_1068" data-name="Path 1068" d="M235.181,180.446l3.617,2.911a.482.482,0,0,0,.564.03l5.38-3.47a.482.482,0,0,0,.041-.781l-3.617-2.911a.482.482,0,0,0-.564-.03l-5.38,3.47A.482.482,0,0,0,235.181,180.446Z" transform="translate(14594.037 -8427.742)" fill="#1587ea"/>
    <path id="Path_1069" data-name="Path 1069" d="M9.783,12.93,6.165,10.019A.482.482,0,0,0,5.6,9.99l-5.38,3.47a.482.482,0,0,0-.041.781L3.8,17.151a.482.482,0,0,0,.564.03l5.38-3.47A.482.482,0,0,0,9.783,12.93Z" transform="translate(14818 -8269.913)" fill="#1587ea"/>
    <path id="Path_1070" data-name="Path 1070" d="M244.742,13.459l-5.38-3.47a.482.482,0,0,0-.564.03L235.18,12.93a.482.482,0,0,0,.041.781l5.38,3.47a.482.482,0,0,0,.564-.03l3.617-2.911A.482.482,0,0,0,244.742,13.459Z" transform="translate(14594.037 -8269.913)" fill="#1587ea"/>
    <path id="Path_1071" data-name="Path 1071" d="M91.437,277.262l-4.053,3.231a.438.438,0,0,1-.51.026l-1-.644a.438.438,0,0,0-.675.368v.348a.437.437,0,0,0,.211.374l6.034,3.656a.438.438,0,0,0,.454,0l6.034-3.656a.437.437,0,0,0,.211-.374v-.311a.438.438,0,0,0-.675-.368l-.94.606a.438.438,0,0,1-.511-.026l-4.034-3.23A.438.438,0,0,0,91.437,277.262Z" transform="translate(14736.799 -8523.684)" fill="#1587ea"/>
  </g>
</svg>
