<svg id="drysign" xmlns="http://www.w3.org/2000/svg" xmlns:xlink="http://www.w3.org/1999/xlink" viewBox="0 0 1148.33 400"><defs><style>.cls-1{fill:none;}.cls-2{clip-path:url(#clip-path);}.cls-3{fill:#fff;}</style><clipPath id="clip-path"><rect class="cls-1" x="-11.46" y="10.3" width="1178.54" height="379.39"/></clipPath></defs><g class="cls-2"><path class="cls-3" d="M1070.78,136.88a29.06,29.06,0,1,1,29.06,28.9,28.8,28.8,0,0,1-29.06-28.9m51.26,0a22.24,22.24,0,1,0-22.2,22.36,22.12,22.12,0,0,0,22.2-22.36m-31.81-16h11c6,0,10.66,3.72,10.66,9.85,0,5.33-2.67,8.4-6.78,9.69l6.93,12.19h-5.89l-6.45-11.79h-4v11.79h-5.41V120.89Zm11.23,15.18c3.31,0,5.4-1.69,5.4-5.33,0-3.47-2.09-5-5.4-5h-5.82v10.33Z"/></g><g class="cls-2"><path class="cls-3" d="M503.35,253.59a53.59,53.59,0,0,1,0-107.18c13.92,0,25.14,5.82,32.82,15V106.52h20.57V200a53.42,53.42,0,0,1-53.39,53.59M470.12,200c0,18.9,14.12,33.86,33.23,33.86,18.9,0,33.24-15,33.24-33.86s-14.54-33.86-33.24-33.86c-18.9,0-33.23,15-33.23,33.86"/></g><g class="cls-2"><path class="cls-3" d="M569.19,197.71c0-34.48,18.49-50.05,43.62-50.05h2.08v19.73h-2.08c-14.54,0-23.26,9.34-23.26,30.32v54.22H569.19Z"/></g><g class="cls-2"><path class="cls-3" d="M628.8,261.28h22.85c4.36,7.27,11,12.46,21.39,12.46,16,0,25.14-10.59,25.14-24.51v-5.61c-5.82,6.24-15,10-25.14,10-26.59,0-45.69-16-45.69-50.89V148.07H647.7V202.7c0,21.19,9.15,31.16,25.34,31.16,16,0,25.35-9.76,25.35-29.92V148.07h20.36v98.67c0,26.58-19.12,46.74-45.7,46.74-21.4,0-37.19-13.09-44.25-32.2"/></g><g class="cls-2"><path class="cls-3" d="M729.12,220.77h19.53c0,8.94,9.34,14.54,21.6,14.54,12.88,0,19.94-5.6,19.94-13.71-.21-23.47-59.41-5.6-59.41-45.9,0-17.45,17-29.29,38.43-29.29s38,11.22,38,31.16H787.69c0-8.1-8.72-13.09-18.9-13.09-10,0-17.66,5-17.66,12.67,0,20.78,58.79,4.78,59.41,44.87.21,21.19-17.45,31.57-40.71,31.57-21.39,0-40.71-11.63-40.71-32.82"/></g><g class="cls-2"><path class="cls-3" d="M820.92,121.27a12.36,12.36,0,1,1,12.47,12.47,12.25,12.25,0,0,1-12.47-12.47m2.29,26.8h20.36V251.93H823.21Z"/></g><g class="cls-2"><path class="cls-3" d="M861.63,261.28h24.51c6.24,7.89,14.54,12.46,24.51,12.46,17.87,0,32.83-11.63,32.83-29.08v-4.78a45.77,45.77,0,0,1-32.83,13.71A53.59,53.59,0,1,1,964.25,200v39.88a53.53,53.53,0,0,1-102.62,21.4M943.89,200c0-18.9-13.92-33.86-33-33.86s-33.44,15-33.44,33.86,14.54,33.86,33.44,33.86,33-15,33-33.86"/></g><g class="cls-2"><path class="cls-3" d="M1068.1,251.93h-20.36V197.3c0-21.19-9.14-31.16-25.34-31.16s-25.35,10-25.35,31.16v54.63H976.7V197.3c0-34.9,19.11-50.89,45.69-50.89s45.7,16,45.7,50.89v54.63Z"/></g><g class="cls-2"><path class="cls-3" d="M178.66,48.06V68.49A131.65,131.65,0,0,1,310.17,200c0,72.51-59,131.51-131.51,131.51v20.43c83.78,0,152-68.16,152-151.94s-68.17-151.94-152-151.94"/></g><g class="cls-2"><path class="cls-3" d="M72.76,277.86C98.63,289.06,122.19,293,142.45,293a153.85,153.85,0,0,0,39.46-5.11c33-8.77,53.15-25.77,55.82-28.12l-21.84-9.16c-21.34,14.09-81.5,43.5-160.48-4.77A130.81,130.81,0,0,1,47.15,200c0-72.52,59-131.51,131.51-131.51V48.06C94.88,48.06,26.72,116.22,26.72,200S94.88,351.94,178.66,351.94V331.51a131.38,131.38,0,0,1-105.9-53.65"/></g><g class="cls-2"><path class="cls-3" d="M205.92,243.75l16.25-16.25L137.3,142.64c-4-4-10.86-3.59-15.35.9s-4.89,11.36-.9,15.34Z"/></g><g class="cls-2"><polygon class="cls-3" points="226.79 232.12 210.54 248.38 215.89 250.62 237.73 259.77 238.53 260.11 226.79 232.12"/></g></svg>