<svg xmlns="http://www.w3.org/2000/svg" width="62" height="62" viewBox="0 0 62 62">
  <g id="Group_4286" data-name="Group 4286" transform="translate(-433 -167)">
    <g id="Rectangle_3642" data-name="Rectangle 3642" transform="translate(433 185)" fill="none" stroke="#40505b" stroke-width="1" stroke-dasharray="2">
      <rect width="62" height="44" rx="5" stroke="none"/>
      <rect x="0.5" y="0.5" width="61" height="43" rx="4.5" fill="none"/>
    </g>
    <g id="Group_3953" data-name="Group 3953" transform="translate(-1424 -3665)">
      <circle id="Ellipse_120" data-name="Ellipse 120" cx="12.5" cy="12.5" r="12.5" transform="translate(1876 3832)" fill="#47b1ff"/>
      <path id="users-solid" d="M2.731,37.986a2,2,0,0,0,0-3.991,2,2,0,0,0,0,3.991Zm12.743,0a2,2,0,0,0,0-3.991,2,2,0,0,0,0,3.991Zm.91,1h-1.82a1.739,1.739,0,0,0-1.283.58,4.581,4.581,0,0,1,2.136,3.411h1.877a.956.956,0,0,0,.91-1v-1A1.916,1.916,0,0,0,16.384,38.984Zm-7.282,0A3.506,3.506,0,0,0,9.1,32a3.506,3.506,0,0,0,0,6.984Zm2.185,1h-.236a4.055,4.055,0,0,1-3.9,0H6.918a3.446,3.446,0,0,0-3.277,3.592v.9a1.436,1.436,0,0,0,1.365,1.5H13.2a1.436,1.436,0,0,0,1.365-1.5v-.9A3.446,3.446,0,0,0,11.287,39.981Zm-6.363-.418a1.739,1.739,0,0,0-1.283-.58H1.82a1.916,1.916,0,0,0-1.82,2v1a.956.956,0,0,0,.91,1H2.785A4.592,4.592,0,0,1,4.924,39.563Z" transform="translate(1879.327 3805.587)" fill="#fff"/>
    </g>
    <g id="signature-with-a-pen" transform="translate(449 193.574)">
      <path id="Path_1284" data-name="Path 1284" d="M21.979,11.526,26.5,13.188,22.741,23.435c-.352.964-2.262,3.979-3.592,4.594l-.323.88a.554.554,0,0,1-.518.363.571.571,0,0,1-.19-.034.552.552,0,0,1-.327-.709L18.1,27.7c-.675-1.311-.171-5.119.124-5.924ZM28.528.684A2.631,2.631,0,0,0,25.41,2.308L22.685,9.734l4.524,1.66,2.722-7.425A2.886,2.886,0,0,0,28.528.684ZM20.34,11.142a1.1,1.1,0,0,0,1.419-.651l2.876-7.757a1.1,1.1,0,0,0-2.071-.767L19.689,9.724A1.1,1.1,0,0,0,20.34,11.142Zm-4.63,14.545a4.291,4.291,0,0,0-1.265-.9,3.3,3.3,0,0,0-1.324-.238l-.121,0a1.716,1.716,0,0,0-1.332-1.127,2.7,2.7,0,0,0-2.079.552c.043-.247.115-.54.168-.751a4.84,4.84,0,0,0,.214-2.045A1.177,1.177,0,0,0,8.9,20.232a5.7,5.7,0,0,0-3.47,1.325c-1.034.7-1.7,1.115-2.357.879-.805-.286-.886-2.466-.5-4.408.346-1.749.991-5.005,2.642-6.484.556-.5,1.362-1.037,2.024-.775.778.305,1.422,1.587,1.565,3.114a1.174,1.174,0,1,0,2.337-.22c-.232-2.489-1.4-4.435-3.044-5.082C7.111,8.2,5.545,8.1,3.647,9.8,1.582,11.645.819,14.78.266,17.572c-.277,1.395-.952,6.022,2.015,7.077,1.808.644,3.276-.35,4.456-1.146.216-.146.428-.289.635-.417a3.137,3.137,0,0,0,.2,2.53c.767,1.153,1.85,1.278,3.219.377.053-.034.114-.074.171-.114a1.593,1.593,0,0,0,.758.757,3.1,3.1,0,0,0,1.345.263,1.863,1.863,0,0,1,.427.036,2.039,2.039,0,0,1,.6.457,7.467,7.467,0,0,0,.646.559,1.174,1.174,0,0,0,1.406-1.879A5.547,5.547,0,0,1,15.711,25.687Z" transform="translate(0 0)" fill="#40505b"/>
    </g>
  </g>
</svg>
