<svg id="Layer_1" data-name="Layer 1" xmlns="http://www.w3.org/2000/svg" viewBox="0 0 60 60"><defs><style>.cls-1{fill:#318ec8;fill-rule:evenodd;}</style></defs><title>hierarchical-signature_icon</title><path id="Hierarchical_signature_icon" data-name="Hierarchical signature icon" class="cls-1" d="M35.33,29.77a2.43,2.43,0,0,1-2.27-1.45,2.32,2.32,0,0,1,.61-2.62,2.1,2.1,0,0,0,.24-2.9A16.61,16.61,0,0,0,31.07,20a2.24,2.24,0,0,0-3,.23,2.57,2.57,0,0,1-1.86.75,2.29,2.29,0,0,1-2.33-2.24,1.48,1.48,0,0,1,0-.21A2.16,2.16,0,0,0,22,16.3a18.63,18.63,0,0,0-4,0,2.17,2.17,0,0,0-2,2.19,2.35,2.35,0,0,1-1.49,2.27,2.39,2.39,0,0,1-.83.15,2.65,2.65,0,0,1-1.87-.74,2.18,2.18,0,0,0-1.61-.7,2.27,2.27,0,0,0-1.36.45,18.17,18.17,0,0,0-2.9,2.78,2.12,2.12,0,0,0,.24,2.92,2.28,2.28,0,0,1,.61,2.64,2.56,2.56,0,0,1-2.43,1.43,2.15,2.15,0,0,0-2.23,1.89,16.92,16.92,0,0,0,0,4,2.34,2.34,0,0,0,2.35,1.89h.08a2.35,2.35,0,0,1,2.34,2.36,2.3,2.3,0,0,1-.79,1.71,2.09,2.09,0,0,0-.23,2.89,16.49,16.49,0,0,0,2.82,2.78,2.22,2.22,0,0,0,3-.22,2.62,2.62,0,0,1,1.86-.76,2.25,2.25,0,0,1,.85.16,2.35,2.35,0,0,1,1.48,2.3,2.14,2.14,0,0,0,1.93,2.24,17.66,17.66,0,0,0,2.06.12c.66,0,1.31,0,2-.1a2.15,2.15,0,0,0,1.94-2.2,2.28,2.28,0,0,1,2.16-2.41h.17A2.62,2.62,0,0,1,28,47a2.24,2.24,0,0,0,3,.25,18.24,18.24,0,0,0,2.9-2.79,2.1,2.1,0,0,0-.24-2.92A2.32,2.32,0,0,1,33,38.93,2.47,2.47,0,0,1,35.2,37.5h.28a2.16,2.16,0,0,0,2.17-1.88,16.92,16.92,0,0,0,0-4A2.32,2.32,0,0,0,35.33,29.77ZM35.16,35A5,5,0,0,0,30.64,38a4.73,4.73,0,0,0,1,5.2,14.62,14.62,0,0,1-2,2,5.25,5.25,0,0,0-3.51-1.33,4.87,4.87,0,0,0-1.8.34,4.81,4.81,0,0,0-3.06,4.31,14.19,14.19,0,0,1-2.84,0,4.82,4.82,0,0,0-3-4.39,5,5,0,0,0-1.84-.35A5.16,5.16,0,0,0,10,45.06a16.19,16.19,0,0,1-2-2,4.71,4.71,0,0,0,1-5.16A4.94,4.94,0,0,0,4.6,35a14.55,14.55,0,0,1,0-2.8,5.11,5.11,0,0,0,4.52-2.94,4.74,4.74,0,0,0-1-5.21,14.1,14.1,0,0,1,2.05-2,5.25,5.25,0,0,0,3.51,1.33A4.78,4.78,0,0,0,15.46,23a4.84,4.84,0,0,0,3.06-4.31,15,15,0,0,1,2.84,0,4.83,4.83,0,0,0,3,4.4,5,5,0,0,0,1.83.35,5.15,5.15,0,0,0,3.51-1.34,15.43,15.43,0,0,1,2,2,4.74,4.74,0,0,0,.11,6.79,4.93,4.93,0,0,0,3.33,1.35,15.4,15.4,0,0,1,0,2.8ZM19.91,27a6.63,6.63,0,1,0,6.81,6.63A6.69,6.69,0,0,0,19.91,27Zm0,10.79a4.16,4.16,0,1,1,4.27-4.16,4.2,4.2,0,0,1-4.27,4.16ZM46,15.92a4.78,4.78,0,0,0-1.69.5,4.43,4.43,0,0,0-1.86,6,4.58,4.58,0,0,0,4.45,2.34,4.74,4.74,0,0,0,1.69-.51,4.42,4.42,0,0,0,1.9-6A4.54,4.54,0,0,0,46,15.92Zm1.71,6.74a2.71,2.71,0,0,1-3.6-1.07,2.63,2.63,0,0,1,2.08-3.82,2.64,2.64,0,0,1,2.9,2.34,2.58,2.58,0,0,1-1.38,2.55Zm9.11-1.93a1.43,1.43,0,0,1-1.09-1.23,1.46,1.46,0,0,1,.75-1.38l.09-.05a1.51,1.51,0,0,0,.78-1.93,12,12,0,0,0-1.25-2.31A1.68,1.68,0,0,0,54,13.39,1.43,1.43,0,0,1,52,11.68a1.51,1.51,0,0,0-.84-1.89A11.71,11.71,0,0,0,48.6,9a1.25,1.25,0,0,0-.43,0,1.54,1.54,0,0,0-1.35,1.14,1.55,1.55,0,0,1-1.25,1.07,1.46,1.46,0,0,1-1.45-.82,1.54,1.54,0,0,0-1.55-.88,1.89,1.89,0,0,0-.41.1,11.82,11.82,0,0,0-2.34,1.22,1.5,1.5,0,0,0-.46,2,1.42,1.42,0,0,1-.13,1.62,1.53,1.53,0,0,1-1,.48,1.28,1.28,0,0,1-.58,0,1.54,1.54,0,0,0-1.94.82,11.48,11.48,0,0,0-.8,2.49A1.53,1.53,0,0,0,36.05,20a1.45,1.45,0,0,1,1.09,1.24,1.51,1.51,0,0,1-.87,1.43,1.49,1.49,0,0,0-.75,1.92,11,11,0,0,0,1.25,2.31,1.54,1.54,0,0,0,1.45.61,1.62,1.62,0,0,0,.65-.18h0a1.21,1.21,0,0,1,.52-.16,1.43,1.43,0,0,1,1.06.32A1.4,1.4,0,0,1,40.91,29a1.53,1.53,0,0,0,.83,1.89,12.43,12.43,0,0,0,2.52.77,2.26,2.26,0,0,0,.45,0,1.54,1.54,0,0,0,1.34-1.15,1.55,1.55,0,0,1,1.26-1.06,1.44,1.44,0,0,1,1.45.81,1.54,1.54,0,0,0,1.55.88,1.89,1.89,0,0,0,.41-.1A11.33,11.33,0,0,0,52,30.52a12.47,12.47,0,0,0,1.11-.66,1.51,1.51,0,0,0,.46-2,1.42,1.42,0,0,1,.13-1.62,1.45,1.45,0,0,1,1-.48,1.19,1.19,0,0,1,.59.06,1.84,1.84,0,0,0,.66.08h0a1.57,1.57,0,0,0,1.27-.9,11.71,11.71,0,0,0,.79-2.5,1.53,1.53,0,0,0-1.14-1.76ZM55.56,24a3.34,3.34,0,0,0-1.09-.07A3.43,3.43,0,0,0,52.19,25a3.26,3.26,0,0,0-.46,3.46c-.21.13-.44.26-.67.38s-.49.24-.74.35a3.37,3.37,0,0,0-3.2-1.6,3.44,3.44,0,0,0-2.81,2.16,9.91,9.91,0,0,1-1.52-.47,3.28,3.28,0,0,0-2.44-4,3.58,3.58,0,0,0-1.13-.08,3.23,3.23,0,0,0-1.06.3,9.75,9.75,0,0,1-.77-1.42A3.34,3.34,0,0,0,39,21a3.3,3.3,0,0,0-2.2-2.78,9.94,9.94,0,0,1,.48-1.52,3.34,3.34,0,0,0,1.09.07,3.45,3.45,0,0,0,2.29-1.15,3.23,3.23,0,0,0,.45-3.46,11.2,11.2,0,0,1,1.42-.73,3.35,3.35,0,0,0,3.19,1.6,3.43,3.43,0,0,0,2.81-2.16,10.39,10.39,0,0,1,1.53.47,3.25,3.25,0,0,0,1.1,3.3,3.37,3.37,0,0,0,2.44.74,3.32,3.32,0,0,0,1.08-.29,8.78,8.78,0,0,1,.77,1.41A3.23,3.23,0,0,0,54.3,21a3.29,3.29,0,0,0,1.75,1.42A9,9,0,0,1,55.56,24Z"/></svg>