<svg id="Layer_1" data-name="Layer 1" xmlns="http://www.w3.org/2000/svg" viewBox="0 0 60 60"><defs><style>.cls-1{fill:#318ec8;}</style></defs><title>seamless-integration-with-applications_icon</title><path class="cls-1" d="M6.27,57.61H6.09A3.28,3.28,0,0,1,3,54.16V26.61H20.68v4.05L31.31,23.9,20.68,16.17v3.9H3V5.57A3.34,3.34,0,0,1,6.43,2.4H54a3.25,3.25,0,0,1,3,3.46V34.6H39.32V29.48L28.56,37.31l10.76,8.81v-5H57V55.42A2.19,2.19,0,0,1,56.34,57a2.14,2.14,0,0,1-1.54.6H6.27ZM4.94,28.55V54.21a1.38,1.38,0,0,0,.34,1,1.32,1.32,0,0,0,.92.44H54.82a.24.24,0,0,0,.24-.22V43.08H41.26V50.2l-15.87-13L41.26,25.68v7h13.8V5.79a1.33,1.33,0,0,0-1.21-1.46H6.39a1.37,1.37,0,0,0-1.45,1.3v12.5h13.8V12.36L34.75,24l-16,10.19V28.55Z"/></svg>