<svg id="Layer_1" data-name="Layer 1" xmlns="http://www.w3.org/2000/svg" viewBox="0 0 60 60"><defs><style>.cls-1{fill:#318ec8;}</style></defs><title>secure-documents-archival_icon</title><path class="cls-1" d="M4.37,20.88c.91.56,20.09,12.18,21.52,12.82a8.16,8.16,0,0,0,3.68.87,8.34,8.34,0,0,0,3.76-.89c2.51-1.43,21.79-13.36,22.49-13.84A2.3,2.3,0,0,0,56.7,19a2.27,2.27,0,0,0-.79-3.07c-.59-.4-9.36-5.61-18.74-11.18L34.45,3.11a7,7,0,0,0-7.55,0C24.69,4.39,5.38,15.35,4.44,15.84l-.09.05a3.06,3.06,0,0,0-.86.86A2.93,2.93,0,0,0,3.06,19,3,3,0,0,0,4.37,20.88Zm.91-3a.92.92,0,0,1,.22-.22C7,16.88,25.81,6.2,28,4.9a4.93,4.93,0,0,1,5.3,0l2.75,1.63c5.38,3.19,18,10.68,18.7,11.16a.14.14,0,0,1,.06.21L54.7,18c-.77.51-19.94,12.38-22.38,13.77a6.14,6.14,0,0,1-5.51,0C25.55,31.22,7.06,20,5.53,19.08a.84.84,0,0,1-.37-.53A.9.9,0,0,1,5.28,17.91Z"/><path class="cls-1" d="M55.91,27.62c-.15-.1-.85-.53-1.92-1.17l-1.11,1.82c1,.6,1.67,1,1.89,1.15a.15.15,0,0,1,.06.22l-.13.1c-.77.52-19.94,12.38-22.38,13.78a6.14,6.14,0,0,1-5.51,0C25.55,42.93,7.06,31.75,5.53,30.8a.89.89,0,0,1-.37-.54.87.87,0,0,1,.12-.63.88.88,0,0,1,.21-.22l2-1.12L6.42,26.44c-1.07.61-1.79,1-2,1.1l-.11.06a3.2,3.2,0,0,0-.86.86,3,3,0,0,0-.43,2.24,3,3,0,0,0,1.31,1.89c.91.57,20.09,12.19,21.52,12.83a8.16,8.16,0,0,0,3.68.87,8.36,8.36,0,0,0,3.76-.9C35.84,44,55.12,32,55.82,31.55a2.23,2.23,0,0,0,.88-.87A2.25,2.25,0,0,0,55.91,27.62Z"/><path class="cls-1" d="M55.91,39.33c-.15-.1-.85-.53-1.92-1.17L52.88,40l1.89,1.15a.15.15,0,0,1,.06.22l-.13.1c-.77.52-19.94,12.39-22.38,13.78a6.14,6.14,0,0,1-5.51,0c-1.26-.57-19.75-11.75-21.28-12.7A.84.84,0,0,1,5.16,42a.9.9,0,0,1,.12-.64.88.88,0,0,1,.21-.22l2-1.12L6.42,38.16l-2,1.1-.11.06a3,3,0,0,0-.86.85,3,3,0,0,0-.43,2.24,3,3,0,0,0,1.31,1.9c.91.56,20.09,12.18,21.52,12.82a8.16,8.16,0,0,0,3.68.87,8.36,8.36,0,0,0,3.76-.9c2.51-1.42,21.79-13.36,22.49-13.83a2.29,2.29,0,0,0,.09-3.94Z"/></svg>