<svg xmlns="http://www.w3.org/2000/svg" width="62" height="62" viewBox="0 0 62 62">
  <g id="Group_4291" data-name="Group 4291" transform="translate(-306 -167)">
    <g id="Group_4287" data-name="Group 4287">
      <g id="Rectangle_3643" data-name="Rectangle 3643" transform="translate(306 185)" fill="none" stroke="#40505b" stroke-width="1" stroke-dasharray="2">
        <rect width="62" height="44" rx="5" stroke="none"/>
        <rect x="0.5" y="0.5" width="61" height="43" rx="4.5" fill="none"/>
      </g>
      <g id="Group_3951" data-name="Group 3951" transform="translate(92.658 -237.705)">
        <path id="Path_1289" data-name="Path 1289" d="M388.455,436.5c-.036-.157-.405-1.571-2.631-2.857s-3.635-.9-3.79-.85a.876.876,0,0,0-.491.4L370.6,452.136a.884.884,0,0,0-.116.387l-.409,6.835a.875.875,0,0,0,1.355.783l5.714-3.772a.862.862,0,0,0,.276-.292l10.936-18.944A.878.878,0,0,0,388.455,436.5Zm-14.818,20.607a7.709,7.709,0,0,0-.975-.663,7.812,7.812,0,0,0-1.065-.514l.122-2.047a6.343,6.343,0,0,1,3.63,2.092Z" transform="translate(-127.265)" fill="#40505b"/>
        <g id="Group_3948" data-name="Group 3948" transform="translate(228.342 454.816)">
          <path id="Path_1290" data-name="Path 1290" d="M234.961,654.451c.057.351.463.46.737.573s.573-.1.793-.2c1.335-.65,3.143.114,4.573.114a.655.655,0,0,0,0-1.31c-1.668,0-3.055-.422-4.708-.149a.824.824,0,0,0-.138-.4,1.035,1.035,0,0,0-1.1-.614,1.558,1.558,0,0,0-.088-.187.61.61,0,0,0-.41-.288,2.744,2.744,0,0,0,.456-2.348.655.655,0,0,0-.567-.328c-.876-.033-1.628.887-2.192,1.439a42.76,42.76,0,0,0-3.849,4.511c-.516.671.625,1.323,1.133.663a46.78,46.78,0,0,1,3.406-3.98c-.292.48-.6.951-.93,1.4-.467.722.648,1.336,1.133.663a1.473,1.473,0,0,1,.423-.41c-.032.082-.065.164-.1.246h0c-.025.052-.051.1-.071.155-.293.737.8,1.071,1.2.5a4.127,4.127,0,0,0,.278-.455A1.969,1.969,0,0,0,234.961,654.451Z" transform="translate(-228.342 -649.306)" fill="#40505b"/>
        </g>
      </g>
    </g>
    <g id="Group_3952" data-name="Group 3952" transform="translate(-1486 -3667)">
      <circle id="Ellipse_121" data-name="Ellipse 121" cx="12.5" cy="12.5" r="12.5" transform="translate(1811 3834)" fill="#47b1ff"/>
      <path id="users-solid" d="M26.577,39.908a3.956,3.956,0,1,0-4.07-3.954A4.011,4.011,0,0,0,26.577,39.908Zm2.791,1.13h-.3a5.768,5.768,0,0,1-4.979,0h-.3A4.129,4.129,0,0,0,19.6,45.1v1.017a1.72,1.72,0,0,0,1.744,1.695H31.81a1.72,1.72,0,0,0,1.744-1.695V45.1A4.129,4.129,0,0,0,29.368,41.037Z" transform="translate(1796.553 3805.797)" fill="#fff"/>
    </g>
  </g>
</svg>
