<svg xmlns="http://www.w3.org/2000/svg" width="28.343" height="28.344" viewBox="0 0 28.343 28.344">
  <g id="Group_4299" data-name="Group 4299" transform="translate(-1787 -3627.574)">
    <path id="Path_1344" data-name="Path 1344" d="M1208.845,119.3a4.154,4.154,0,0,0-.819-.6,19.6,19.6,0,0,0-9.51-1.767,18.832,18.832,0,0,0-6.8,1.824c-.423.2-.887.494-.524,1,.15.208.689.137,1.051.189.025,0,.053-.024.081-.036a16.245,16.245,0,0,1,9.854-1.529,47.011,47.011,0,0,1,5.489,1.581C1208.354,120.167,1208.8,120.053,1208.845,119.3Z" transform="translate(601.434 3528.694)" fill="#fff"/>
    <path id="Path_1348" data-name="Path 1348" d="M1258.6,66.712a14.094,14.094,0,0,0-.8-2.286c-.454-.825-1.242-.791-1.807-.041a4.759,4.759,0,0,0,.009,4.688c.567.74,1.362.763,1.807-.065A14.4,14.4,0,0,0,1258.6,66.712Z" transform="translate(548.673 3572.22)" fill="#fff"/>
    <path id="Path_1349" data-name="Path 1349" d="M1207.424,66.732a13.831,13.831,0,0,0,.8,2.286c.455.825,1.241.786,1.806.032a4.69,4.69,0,0,0-.011-4.682c-.571-.742-1.36-.767-1.808.064A14.12,14.12,0,0,0,1207.424,66.732Z" transform="translate(588.012 3572.223)" fill="#fff"/>
    <g id="Group_4293" data-name="Group 4293" transform="translate(1522.081 3155.93)">
      <ellipse id="Ellipse_109" data-name="Ellipse 109" cx="14.172" cy="14.172" rx="14.172" ry="14.172" transform="translate(264.919 471.645)" fill="#e5e5e5"/>
      <path id="Path_1263" data-name="Path 1263" d="M1208.845,119.3c-.043.755-.491.869-1.179.655a47.011,47.011,0,0,0-5.489-1.581,16.245,16.245,0,0,0-9.854,1.529c-.028.012-.056.04-.081.036-.362-.052-.9.019-1.051-.189-.363-.5.1-.8.524-1a18.832,18.832,0,0,1,6.8-1.824,19.6,19.6,0,0,1,9.51,1.767A4.154,4.154,0,0,1,1208.845,119.3Z" transform="translate(-920.648 372.764)" fill="#a1a1a1"/>
      <path id="Path_1267" data-name="Path 1267" d="M1258.6,66.712a14.4,14.4,0,0,1-.79,2.295c-.446.828-1.24.805-1.807.065a4.759,4.759,0,0,1-.009-4.688c.565-.75,1.353-.784,1.807.041A14.094,14.094,0,0,1,1258.6,66.712Z" transform="translate(-973.408 416.29)" fill="#a1a1a1"/>
      <path id="Path_1269" data-name="Path 1269" d="M1207.424,66.732a14.12,14.12,0,0,1,.783-2.3c.448-.831,1.237-.806,1.808-.064a4.69,4.69,0,0,1,.011,4.682c-.565.754-1.351.793-1.806-.032A13.831,13.831,0,0,1,1207.424,66.732Z" transform="translate(-934.07 416.294)" fill="#a1a1a1"/>
    </g>
  </g>
</svg>
