<svg xmlns="http://www.w3.org/2000/svg" width="28.343" height="28.344" viewBox="0 0 28.343 28.344">
  <g id="Group_4303" data-name="Group 4303" transform="translate(-1945.174 -3627.574)">
    <ellipse id="Ellipse_114" data-name="Ellipse 114" cx="14.172" cy="14.172" rx="14.172" ry="14.172" transform="translate(1945.174 3627.574)" fill="#e5e5e5"/>
    <path id="Path_1280" data-name="Path 1280" d="M626.146,66.7a13.78,13.78,0,0,1-.778,2.3c-.468.863-1.293.821-1.86.016a4.694,4.694,0,0,1,.02-4.612c.553-.755,1.357-.8,1.812.007A13.666,13.666,0,0,1,626.146,66.7Z" transform="translate(1331.033 3572.215)" fill="#a1a1a1"/>
    <path id="Path_1278" data-name="Path 1278" d="M614.858,118.209a11.342,11.342,0,0,1-8.215-3.507c-.064-.063-.122-.132-.181-.2-.3-.346-.527-.777-.053-1.059a1.062,1.062,0,0,1,.977.2,10.534,10.534,0,0,0,5.562,3.1c3.549.659,6.52-.619,9.188-2.841.184-.153.331-.417.534-.464a1.176,1.176,0,0,1,.866.094c.13.1.039.52,0,.792-.012.1-.148.182-.236.262A12.729,12.729,0,0,1,614.858,118.209Z" transform="translate(1344.796 3531.554)" fill="#a1a1a1"/>
    <path id="Path_1279" data-name="Path 1279" d="M673.115,66.747a13.483,13.483,0,0,1-.716,2.223c-.473.907-1.338.882-1.916.042a4.724,4.724,0,0,1,0-4.538c.578-.84,1.44-.861,1.914.051A13.539,13.539,0,0,1,673.115,66.747Z" transform="translate(1292.488 3572.197)" fill="#a1a1a1"/>
  </g>
</svg>
