<svg xmlns="http://www.w3.org/2000/svg" width="28.343" height="28.344" viewBox="0 0 28.343 28.344">
  <g id="Group_4306" data-name="Group 4306" transform="translate(-1865.081 -3665.503)">
    <ellipse id="Ellipse_142" data-name="Ellipse 142" cx="14.172" cy="14.172" rx="14.172" ry="14.172" transform="translate(1865.081 3665.503)" fill="#fddf80"/>
    <g id="Group_4294" data-name="Group 4294" transform="translate(1520.448 3193.859)">
      <path id="Path_1265" data-name="Path 1265" d="M1004.855,124.439q-3.817,0-7.633,0a1.86,1.86,0,0,1-.792-.072.876.876,0,0,1-.425-.585.691.691,0,0,1,.374-.528,2.341,2.341,0,0,1,.877-.1q7.678-.007,15.357,0a1.535,1.535,0,0,1,.7.046c.225.131.506.409.5.621s-.3.5-.534.574a3.66,3.66,0,0,1-1.069.048Q1008.537,124.441,1004.855,124.439Z" transform="translate(-646.371 367.634)" fill="#484848"/>
      <path id="Path_1268" data-name="Path 1268" d="M1016.428,66.7a14.036,14.036,0,0,1-.761,2.294c-.458.867-1.288.836-1.858.039a4.743,4.743,0,0,1,.008-4.612c.573-.791,1.394-.812,1.861.058A13.668,13.668,0,0,1,1016.428,66.7Z" transform="translate(-660.488 416.28)" fill="#484848"/>
      <path id="Path_1271" data-name="Path 1271" d="M1063.451,66.7a14.1,14.1,0,0,1-.777,2.3c-.459.855-1.294.81-1.864.007a4.8,4.8,0,0,1,.033-4.615c.567-.754,1.361-.8,1.812.021A13.865,13.865,0,0,1,1063.451,66.7Z" transform="translate(-699.059 416.295)" fill="#484848"/>
    </g>
  </g>
</svg>
