<svg xmlns="http://www.w3.org/2000/svg" width="28.343" height="28.344" viewBox="0 0 28.343 28.344">
  <g id="Group_4305" data-name="Group 4305" transform="translate(-1906.048 -3665.503)">
    <path id="Path_1352" data-name="Path 1352" d="M863.428,66.731a14.01,14.01,0,0,0,.8,2.3c.454.82,1.245.778,1.807.024a4.7,4.7,0,0,0-.018-4.684c-.542-.706-1.327-.764-1.756,0A14.264,14.264,0,0,0,863.428,66.731Z" transform="translate(1059.682 3609.459)" fill="#fff"/>
    <path id="Path_1350" data-name="Path 1350" d="M816.429,66.68a14.223,14.223,0,0,0,.833,2.36c.433.776,1.2.724,1.757.017a4.731,4.731,0,0,0,.028-4.688c-.564-.76-1.355-.808-1.81.011A13.989,13.989,0,0,0,816.429,66.68Z" transform="translate(1097.523 3610.175)" fill="#fff"/>
    <ellipse id="Ellipse_141" data-name="Ellipse 141" cx="14.172" cy="14.172" rx="14.172" ry="14.172" transform="translate(1906.048 3665.503)" fill="#fddf80"/>
    <path id="Path_1345" data-name="Path 1345" d="M809.576,120.307c1.387-.2,2.8-.294,4.153-.629a38.443,38.443,0,0,0,4.4-1.488c.222-.085.3-.549.443-.837a4.59,4.59,0,0,0-.978-.277c-.212-.014-.437.171-.657.263a17.6,17.6,0,0,1-14.856-.185c-.434-.2-.882-.4-1.158.152s.156.811.58,1.011A21.358,21.358,0,0,0,809.576,120.307Z" transform="translate(1110.314 3566.566)" fill="#fff"/>
    <path id="Path_1346" data-name="Path 1346" d="M809.576,120.307a21.358,21.358,0,0,1-8.073-1.991c-.424-.2-.86-.455-.58-1.011s.724-.355,1.158-.152a17.6,17.6,0,0,0,14.856.185c.22-.092.445-.277.657-.263a4.59,4.59,0,0,1,.978.277c-.144.288-.221.753-.443.837a38.443,38.443,0,0,1-4.4,1.488C812.376,120.013,810.963,120.106,809.576,120.307Z" transform="translate(1110.314 3566.566)" fill="#484848"/>
    <path id="Path_1351" data-name="Path 1351" d="M816.429,66.68a13.989,13.989,0,0,1,.808-2.3c.455-.818,1.246-.771,1.81-.011a4.731,4.731,0,0,1-.028,4.688c-.552.708-1.324.759-1.757-.017A14.223,14.223,0,0,1,816.429,66.68Z" transform="translate(1097.523 3610.175)" fill="#484848"/>
    <path id="Path_1353" data-name="Path 1353" d="M863.428,66.731a14.264,14.264,0,0,1,.839-2.358c.429-.766,1.214-.708,1.756,0a4.7,4.7,0,0,1,.018,4.684c-.563.754-1.353.8-1.807-.024A14.01,14.01,0,0,1,863.428,66.731Z" transform="translate(1059.682 3609.459)" fill="#484848"/>
  </g>
</svg>
