<svg xmlns="http://www.w3.org/2000/svg" width="28.343" height="28.344" viewBox="0 0 28.343 28.344">
  <g id="Group_4300" data-name="Group 4300" transform="translate(-1826.016 -3627)">
    <ellipse id="Ellipse_143" data-name="Ellipse 143" cx="14.172" cy="14.172" rx="14.172" ry="14.172" transform="translate(1826.016 3627)" fill="#e5e5e5"/>
    <path id="Path_1347" data-name="Path 1347" d="M1404.225,116.847a.654.654,0,0,1-.954.681,3.929,3.929,0,0,1-.611-.523c-4.667-4.116-10.315-4.024-14.731.205a1.124,1.124,0,0,1-1.032.207c-.5-.35-.161-.771.15-1.126a11.14,11.14,0,0,1,13.941-2.031,25.374,25.374,0,0,1,2.751,1.99A2.865,2.865,0,0,1,1404.225,116.847Z" transform="translate(445.056 3531.55)" fill="#a1a1a1"/>
    <path id="Path_1354" data-name="Path 1354" d="M1449.5,66.722a14.049,14.049,0,0,1,.807-2.3c.453-.816,1.252-.773,1.813-.022a4.707,4.707,0,0,1-.021,4.686c-.542.705-1.331.762-1.759,0A14.245,14.245,0,0,1,1449.5,66.722Z" transform="translate(393.492 3571.641)" fill="#a1a1a1"/>
    <path id="Path_1355" data-name="Path 1355" d="M1406.742,66.726a14.564,14.564,0,0,1-.8,2.292c-.45.827-1.239.8-1.809.062a4.747,4.747,0,0,1-.008-4.684c.571-.748,1.361-.781,1.809.039A14.711,14.711,0,0,1,1406.742,66.726Z" transform="translate(431.221 3571.635)" fill="#a1a1a1"/>
  </g>
</svg>
