<svg id="Layer_1" data-name="Layer 1" xmlns="http://www.w3.org/2000/svg" viewBox="0 0 26 26"><defs><style>.cls-1{fill:#1e7ab5;}.cls-2{fill:#41525c;}.cls-3{fill:#fff;}.cls-4{fill:#e56c25;}</style></defs><title>Step 2 - Prepare and sign</title><path class="cls-1" d="M18.7,23.17H7.3A1.88,1.88,0,0,1,5.42,21.3V4.7A1.88,1.88,0,0,1,7.3,2.83h8.44a36,36,0,0,0,4.84,4.91V21.3A1.88,1.88,0,0,1,18.7,23.17Z"/><path class="cls-2" d="M18.14,5.27l-2.4-2.44V6.77a1,1,0,0,0,1,1h3.88Z"/><path class="cls-3" d="M12.41,10.29H7.79a.45.45,0,1,1,0-.89h4.62a.45.45,0,0,1,0,.89Z"/><path class="cls-3" d="M18.21,12.21H7.79a.45.45,0,1,1,0-.89H18.21a.45.45,0,1,1,0,.89Z"/><path class="cls-3" d="M18.21,14.13H7.79a.45.45,0,1,1,0-.89H18.21a.45.45,0,1,1,0,.89Z"/><path class="cls-3" d="M18.21,16.05H7.79a.45.45,0,1,1,0-.89H18.21a.45.45,0,1,1,0,.89Z"/><rect class="cls-4" x="13.58" y="19.99" width="4.84" height="0.3"/><path class="cls-3" d="M17.64,19.53c-.14.35-.36-.06-.51,0a.48.48,0,0,0-.17.1.1.1,0,0,0-.15-.08,4.23,4.23,0,0,0-.34.3v-.06a.1.1,0,0,0-.18-.05c-.33,0-.33,0,0-.07a.1.1,0,0,0,.07-.19c-.31-.2-.63.11-.88.37a1.49,1.49,0,0,1,0-.21.1.1,0,0,0-.13-.09,3.51,3.51,0,0,0-.77.32l0-.21c0-.27,0-.55.3-.33.1.07.2-.1.1-.17-.55-.38-.65.14-.59.6,0,.08,0,.15,0,.23a1,1,0,0,0-.39.51c-.12.37.05.8.5.62s.22-.42.17-.69l-.06-.34a2.5,2.5,0,0,1,.64-.3c0,.1,0,.2,0,.31s.1.12.17.07l.29-.3a.28.28,0,0,0,0,.09c.06.33.32.22.52.07v0c-.36.42-.68,1-.32,1.12s.5-.57.52-1.06a1.79,1.79,0,0,1,.27-.28h0a.09.09,0,0,0,.16.09c.15-.12.18-.23.38-.09a.4.4,0,0,0,.23.1c.2,0,.28-.22.33-.37S17.69,19.41,17.64,19.53Zm-3.08,1.23v0c0,.14-.12.15-.35,0s.12-.47.27-.62h0C14.51,20.39,14.54,20.57,14.56,20.76Zm1.57.12c-.07.21-.12,0-.09-.1a1.28,1.28,0,0,1,.19-.34C16.2,20.59,16.17,20.74,16.13,20.88Z"/><path class="cls-3" d="M15.61,19.23a.12.12,0,0,1,0-.07c0-.12-.12-.22-.18-.11a.53.53,0,0,0,0,.18A.1.1,0,0,0,15.61,19.23Z"/></svg>