<svg id="Layer_1" data-name="Layer 1" xmlns="http://www.w3.org/2000/svg" viewBox="0 0 26 26"><defs><style>.cls-1{fill:#1e7ab5;}.cls-2{fill:#41525c;}.cls-3{fill:#fff;}</style></defs><title>Step 1 - Upload your document</title><path class="cls-1" d="M20.56,7.7V21.45a1.8,1.8,0,0,1-1.79,1.8H7.09a1.81,1.81,0,0,1-1.8-1.8V14h7.18V6.75H5.29V4.55a1.81,1.81,0,0,1,1.8-1.8h8.67l.05,0-.05,0v4a.9.9,0,0,0,.9.9h3.81l.05,0Z"/><path class="cls-2" d="M20.52,7.65l-.05,0H16.66a.9.9,0,0,1-.9-.9v-4l.05,0Z"/><path class="cls-2" d="M12.47,6.75V14h-9V6.75Z"/><path class="cls-3" d="M12.33,16.82H7.68a.45.45,0,0,1-.45-.45.45.45,0,0,1,.45-.45h4.65a.45.45,0,0,1,.45.45A.45.45,0,0,1,12.33,16.82Z"/><path class="cls-3" d="M18.18,18.75H7.68a.45.45,0,1,1,0-.9h10.5a.45.45,0,1,1,0,.9Z"/><path class="cls-3" d="M18.18,20.69H7.68a.45.45,0,1,1,0-.9h10.5a.45.45,0,0,1,0,.9Z"/><path class="cls-3" d="M8.26,7.94a.46.46,0,0,0-.62,0L5.92,9.61a.45.45,0,0,0,.63.64l1-.92v3.1a.45.45,0,0,0,.9,0V9.33l.95.92a.46.46,0,0,0,.44.12.46.46,0,0,0,.32-.33A.43.43,0,0,0,10,9.61Z"/></svg>