<svg id="Layer_1" data-name="Layer 1" xmlns="http://www.w3.org/2000/svg" viewBox="0 0 26 26"><defs><style>.cls-1{fill:#1e7ab5;}.cls-2{fill:#41525c;}.cls-3{fill:#e56c25;}.cls-4{fill:#fff;}</style></defs><title>Step 3 - Enter recipient&amp;apos;s email address</title><polygon class="cls-1" points="19.32 12.74 22.51 10.31 22.51 21.15 22.42 21.15 14.93 16.11 19.32 12.74"/><polygon class="cls-2" points="22.51 10.26 22.51 10.31 19.32 12.74 19.32 8.13 19.42 8.13 22.51 10.26"/><polygon class="cls-2" points="22.42 21.15 3.58 21.15 11.01 16.17 11.05 16.11 13 17.59 14.93 16.11 22.42 21.15"/><polygon class="cls-3" points="6.67 8.06 6.67 4.85 19.32 4.85 19.32 8.13 19.32 12.74 14.93 16.11 13 17.59 11.05 16.11 6.67 12.74 6.67 8.06"/><polygon class="cls-1" points="6.67 12.74 11.05 16.11 11.01 16.17 3.58 21.15 3.49 21.15 3.49 10.31 6.67 12.74"/><polygon class="cls-2" points="6.67 8.06 6.67 12.74 3.49 10.31 3.49 10.26 6.67 8.06"/><path class="cls-4" d="M15.49,10.3c0,1.07-.6,1.53-1.24,1.53a.81.81,0,0,1-.81-.5,1,1,0,0,1-.91.49,1,1,0,0,1-.95-1.11c0-1.08.62-1.62,1.36-1.62a.6.6,0,0,1,.65.45l.13-.4h.72l-.27,1.69c-.05.33,0,.5.31.5s.55-.34.55-1a1.74,1.74,0,0,0-1.91-1.91A2,2,0,0,0,11,10.52a1.84,1.84,0,0,0,1.91,2,1.78,1.78,0,0,0,1.18-.33l.25.35a2.23,2.23,0,0,1-1.45.42,2.25,2.25,0,0,1-2.39-2.4A2.47,2.47,0,0,1,13.12,8,2.18,2.18,0,0,1,15.49,10.3Zm-3.05.29c0,.35.14.55.4.55a.5.5,0,0,0,.5-.44l.06-.48c0-.3-.05-.49-.35-.49S12.44,10.06,12.44,10.59Z"/></svg>