<?xml version="1.0" encoding="utf-8"?>
<!-- Generator: Adobe Illustrator 23.1.0, SVG Export Plug-In . SVG Version: 6.00 Build 0)  -->
<svg version="1.1" id="Layer_1" xmlns="http://www.w3.org/2000/svg" xmlns:xlink="http://www.w3.org/1999/xlink" x="0px" y="0px"
	 viewBox="0 0 26 26" style="enable-background:new 0 0 26 26;" xml:space="preserve">
<style type="text/css">
	.st0{fill:#1E7AB5;}
	.st1{fill:#FFFFFF;}
	.st2{fill:#40515B;}
</style>
<title>Step 4 - Add a subject and message for the recipient(s)</title>
<path class="st0" d="M7.1,2.8h11.7c1,0,1.8,0.8,1.8,1.8v17c0,1-0.8,1.8-1.8,1.8H7.1c-1,0-1.8-0.8-1.8-1.8v-17
	C5.4,3.5,6.2,2.8,7.1,2.8z"/>
<path class="st1" d="M7.5,5.4h11.1c0.4,0,0.8,0.3,0.8,0.8v1.2c0,0.4-0.3,0.8-0.8,0.8H7.5c-0.4,0-0.8-0.3-0.8-0.8V6.1
	C6.7,5.7,7.1,5.4,7.5,5.4z"/>
<path class="st1" d="M7.5,8.8h11c0.4,0,0.8,0.3,0.8,0.8v9.1l0,0H7.5c-0.4,0-0.8-0.3-0.8-0.8V9.6C6.7,9.2,7.1,8.8,7.5,8.8z"/>
<path class="st0" d="M18.3,10.6H7.7c-0.1,0-0.2-0.1-0.2-0.2c0-0.1,0.1-0.2,0.2-0.2c0,0,0,0,0,0h10.5c0.1,0,0.2,0.1,0.2,0.2
	C18.4,10.6,18.4,10.6,18.3,10.6C18.3,10.6,18.3,10.6,18.3,10.6z"/>
<path class="st0" d="M18.3,11.8H7.7c-0.1,0-0.2-0.1-0.2-0.2c0-0.1,0.1-0.2,0.2-0.2h10.5c0.1,0,0.2,0.1,0.2,0.2
	C18.4,11.7,18.4,11.7,18.3,11.8z"/>
<path class="st0" d="M12.4,12.9H7.7c-0.1,0-0.2-0.1-0.2-0.2c0-0.1,0.1-0.2,0.2-0.1h4.7c0.1,0,0.2,0.1,0.2,0.1
	C12.6,12.8,12.5,12.9,12.4,12.9z"/>
<path class="st0" d="M17.2,6.9H7.7c-0.1,0-0.2-0.1-0.2-0.2c0-0.1,0.1-0.2,0.2-0.2h9.4c0.1,0,0.2,0.1,0.2,0.2
	C17.3,6.8,17.3,6.9,17.2,6.9z"/>
<polygon class="st1" points="14.6,19 16.7,18.7 14.6,18.4 14.6,16.4 19.8,18.7 14.6,20.9 "/>
<path class="st2" d="M14.8,16.7l4.6,2l-4.6,2v-1.6l3.3-0.4l-3.3-0.4L14.8,16.7 M14.4,18.8v2.4l0.5-0.2l4.6-2l0.8-0.3l-0.8-0.3
	l-4.6-2l-0.5-0.2l0,0v2.4"/>
</svg>
