<svg id="Layer_1" data-name="Layer 1" xmlns="http://www.w3.org/2000/svg" viewBox="0 0 26 26"><defs><style>.cls-1{fill:#1e7ab5;}.cls-2{fill:#41525c;}.cls-3{fill:#fff;}</style></defs><title>Step 3 - Prepare and sign</title><path class="cls-1" d="M16.78,7.65a.9.9,0,0,1-.91-.9v-4H7.13A1.77,1.77,0,0,0,5.36,4.52v17a1.77,1.77,0,0,0,1.77,1.77H18.87a1.76,1.76,0,0,0,1.76-1.77V7.65H16.78Z"/><path class="cls-2" d="M15.87,2.75v4a.9.9,0,0,0,.91.9h3.85l-4.71-4.9Z"/><path class="cls-3" d="M6.91,15.81a1.54,1.54,0,0,1,1-1,4.59,4.59,0,0,1,1.25-.36,8.05,8.05,0,0,1,1.55-.14,2.75,2.75,0,0,1,1.19.26,1.56,1.56,0,0,1,.87,1.23,2.46,2.46,0,0,1-.21,1.31.3.3,0,0,0,0,.08v0l.42-.05a.68.68,0,0,1-.14-.37,1.06,1.06,0,0,1,0-.25.14.14,0,0,1,.23-.1,1,1,0,0,1,.23.18,1.25,1.25,0,0,1,.25.47c0,.05,0,.06.09.07A4.28,4.28,0,0,0,14.75,17l.34-.1a.35.35,0,0,0,.19-.12,10.78,10.78,0,0,1,2-1.78,5.4,5.4,0,0,1,1.18-.64.87.87,0,0,1,.45-.07.21.21,0,0,1,.2.19,1,1,0,0,1-.1.5,1.94,1.94,0,0,1-.59.74,4.49,4.49,0,0,1-1.79.95l-.27.08h0a.17.17,0,0,1,0,.19,3.68,3.68,0,0,1-.21.45c-.11.17-.24.33-.35.5s-.26.44-.38.67a.57.57,0,0,0,0,.14l0,0,.11-.06.41-.33.6-.51.09-.11c.07-.11.14-.23.23-.35a.51.51,0,0,1,.16-.13.15.15,0,0,1,.13,0c.05,0,.05.08,0,.13a.88.88,0,0,1-.14.23,1.6,1.6,0,0,0-.21.32c-.08.16-.15.32-.22.49a.37.37,0,0,0,0,.15.45.45,0,0,0,.14-.06l.41-.42.47-.49a.87.87,0,0,1,.23-.16.12.12,0,0,1,.1,0,.1.1,0,0,1,.07.16,2.39,2.39,0,0,1-.22.23.84.84,0,0,0-.22.39c0,.16,0,.27.21.27a1.18,1.18,0,0,0,.87-.37.11.11,0,0,1,.16,0,.1.1,0,0,1,0,.15,1.2,1.2,0,0,1-.5.39,1.71,1.71,0,0,1-.38.13.5.5,0,0,1-.62-.48l-.06.05c-.16.14-.32.29-.49.42a.54.54,0,0,1-.2.1.16.16,0,0,1-.22-.14,1,1,0,0,1,0-.43.45.45,0,0,0,0-.08l-.14.13-.56.48a.64.64,0,0,1-.38.15c-.13,0-.22-.06-.2-.2a1.18,1.18,0,0,1,.08-.31,4.33,4.33,0,0,1,.44-.75c.09-.12.18-.25.26-.38a.16.16,0,0,0,0-.06l-.17.16-1.29,1.23L14,19a.5.5,0,0,1-.19.1c-.12,0-.2,0-.17-.16a.85.85,0,0,1,.11-.26,5.11,5.11,0,0,1,.6-.84c.16-.21.33-.4.5-.6l0-.05a6.35,6.35,0,0,1-1.31.17,1.1,1.1,0,0,1,0,.18,1,1,0,0,1-.1.53.47.47,0,0,1-.24.24.25.25,0,0,1-.33-.07A1.43,1.43,0,0,1,12.8,18c0-.08-.07-.17-.11-.25a.37.37,0,0,0-.28-.22s-.05,0-.06,0a13,13,0,0,1-1.68,2.23A6,6,0,0,1,9.23,21a1.82,1.82,0,0,1-.67.29l-.09,0H8.26l-.1,0A.25.25,0,0,1,8,21a.25.25,0,0,1,0-.15,2.92,2.92,0,0,1,.18-.46,4.18,4.18,0,0,1,.92-1.17,14.6,14.6,0,0,1,2.35-1.72l.06,0s0,0,0,0a8.78,8.78,0,0,1-2.29-.1,5.11,5.11,0,0,1-1.47-.5,1.41,1.41,0,0,1-.79-.9Zm3.73,1.52a15.34,15.34,0,0,0,1.58-.12.09.09,0,0,0,.07-.05c.06-.12.11-.25.16-.38a1.88,1.88,0,0,0,.1-1,1.45,1.45,0,0,0-1.05-1.19A3.31,3.31,0,0,0,10,14.53c-.38.05-.75.13-1.13.21a3.93,3.93,0,0,0-1.06.37,1.5,1.5,0,0,0-.57.52.53.53,0,0,0,0,.63l.15.16a2.12,2.12,0,0,0,.51.33A6.27,6.27,0,0,0,10.64,17.33Zm1.46.2,0,0a3.17,3.17,0,0,0-.37.17A13.14,13.14,0,0,0,10,18.81,6.38,6.38,0,0,0,8.9,19.86a5.58,5.58,0,0,0-.57.86,2.25,2.25,0,0,0-.08.24c0,.09,0,.14.11.13A1.1,1.1,0,0,0,8.62,21a2.47,2.47,0,0,0,.84-.5,11.83,11.83,0,0,0,2.21-2.37Zm3.55-.83h.06c.24-.07.48-.15.73-.21a4.16,4.16,0,0,0,1.93-1.1,1.76,1.76,0,0,0,.45-.68c0-.06.05-.12,0-.18a.17.17,0,0,0-.18,0,3.32,3.32,0,0,0-.47.2,10.13,10.13,0,0,0-2.5,2S15.66,16.68,15.65,16.7Zm.31.15-.64.21,0,0c-.44.5-.85,1-1.24,1.56l0,.05C14.7,18.12,15.32,17.48,16,16.85Zm-3.23.52c.08.12.15.24.23.35a1.59,1.59,0,0,0,.2.24c.09.09.17.07.18-.06s0-.35,0-.52,0-.07-.06-.07l-.11,0a.83.83,0,0,1-.15,0Zm.27-.74c-.05.19.12.45.3.44A.65.65,0,0,0,13,16.63Z"/><path class="cls-3" d="M12.4,8.13H7.75a.45.45,0,0,1-.45-.45h0a.45.45,0,0,1,.45-.45H12.4a.45.45,0,0,1,0,.9Z"/><path class="cls-3" d="M18.25,10.06H7.75a.45.45,0,0,1,0-.9h10.5a.45.45,0,0,1,0,.9Z"/><path class="cls-3" d="M18.25,12H7.75a.45.45,0,1,1,0-.9h10.5a.45.45,0,0,1,0,.9Z"/></svg>