<?xml version="1.0" encoding="utf-8"?>
<!-- Generator: Adobe Illustrator 23.1.0, SVG Export Plug-In . SVG Version: 6.00 Build 0)  -->
<svg version="1.1" id="Layer_1" xmlns="http://www.w3.org/2000/svg" xmlns:xlink="http://www.w3.org/1999/xlink" x="0px" y="0px"
	 viewBox="0 0 26 26" style="enable-background:new 0 0 26 26;" xml:space="preserve">
<style type="text/css">
	.st0{fill:#41525C;}
	.st1{fill:#1E7AB5;}
	.st2{fill:#FFFFFF;}
</style>
<polygon class="st0" points="8.2,7.4 3.5,10.3 7.6,14.5 "/>
<polygon class="st0" points="17.8,7.4 22.5,10.3 18.4,14.5 "/>
<title>Step 3 - Enter recipient&amp;apos;s email address</title>
<polygon class="st1" points="19.3,12.7 22.5,10.3 22.5,21.1 22.4,21.1 14.9,16.1 "/>
<polygon class="st0" points="22.4,21.1 3.6,21.1 11,16.2 11.1,16.1 13,17.6 14.9,16.1 "/>
<polygon class="st0" points="6.7,8.1 6.7,4.8 19.3,4.8 19.3,8.1 19.3,12.7 14.9,16.1 13,17.6 11.1,16.1 6.7,12.7 "/>
<polygon class="st1" points="6.7,12.7 11.1,16.1 11,16.2 3.6,21.1 3.5,21.1 3.5,10.3 "/>
<polygon class="st2" points="7,8.2 7,5.1 19,5.1 19,8.3 19,12.7 14.8,15.9 13,17.3 11.1,15.9 7,12.7 "/>
<g>
	<path class="st0" d="M12.5,7.9H8.7c-0.2,0-0.4-0.2-0.4-0.4l0,0c0-0.2,0.2-0.4,0.4-0.4h3.8c0.2,0,0.4,0.2,0.4,0.4
		C12.9,7.8,12.7,7.9,12.5,7.9L12.5,7.9z"/>
	<path class="st0" d="M17.3,9.5H8.7c-0.2,0-0.4-0.2-0.4-0.4s0.2-0.4,0.4-0.4l0,0h8.5c0.2,0,0.4,0.2,0.4,0.4S17.5,9.5,17.3,9.5
		L17.3,9.5z"/>
	<path class="st0" d="M17.3,11.1H8.7c-0.2,0-0.4-0.2-0.4-0.4s0.2-0.4,0.4-0.4l0,0h8.5c0.2,0,0.4,0.2,0.4,0.4
		C17.6,10.9,17.5,11.1,17.3,11.1z"/>
</g>
</svg>
