<svg xmlns="http://www.w3.org/2000/svg" width="14" height="16" viewBox="0 0 14 16">
  <g id="text-file" transform="translate(-36.546)">
    <g id="Group_1019" data-name="Group 1019" transform="translate(36.546)">
      <path id="Path_1062" data-name="Path 1062" d="M44.6,6.667a1.039,1.039,0,0,1-.744-.292.941.941,0,0,1-.306-.708V0H37.6a1.039,1.039,0,0,0-.744.292A.941.941,0,0,0,36.546,1V15a.942.942,0,0,0,.306.708A1.039,1.039,0,0,0,37.6,16H49.5a1.039,1.039,0,0,0,.743-.292A.942.942,0,0,0,50.546,15V6.667ZM47.746,13a.316.316,0,0,1-.1.239.35.35,0,0,1-.251.094H39.7a.35.35,0,0,1-.252-.094.317.317,0,0,1-.1-.239v-.667a.316.316,0,0,1,.1-.24A.352.352,0,0,1,39.7,12h7.7a.351.351,0,0,1,.251.094.316.316,0,0,1,.1.24Zm0-2.667a.317.317,0,0,1-.1.24.351.351,0,0,1-.251.094H39.7a.351.351,0,0,1-.252-.094.317.317,0,0,1-.1-.24V9.667a.316.316,0,0,1,.1-.239.351.351,0,0,1,.252-.094h7.7a.35.35,0,0,1,.251.094.316.316,0,0,1,.1.239Z" transform="translate(-36.546)" fill="#fff"/>
      <path id="Path_1063" data-name="Path 1063" d="M260.435,4.781l-3.25-3.25A2.531,2.531,0,0,0,255.81.854v5.3h5.3A2.531,2.531,0,0,0,260.435,4.781Z" transform="translate(-247.143 -0.823)" fill="#fff"/>
    </g>
  </g>
</svg>
