<svg xmlns="http://www.w3.org/2000/svg" width="28" height="20.373" viewBox="0 0 28 20.373">
  <g id="Group_4583" data-name="Group 4583" transform="translate(-14533 8259)">
    <path id="Path_1211" data-name="Path 1211" d="M21.878,87.023H15.871v-6.07h1.985a.621.621,0,0,0,.5-.984L14.5,74.625a.615.615,0,0,0-1,0L9.635,79.969a.619.619,0,0,0,.5.984h1.985v6.07H5.4A6.017,6.017,0,0,1,0,81a5.7,5.7,0,0,1,2.826-4.92,3.821,3.821,0,0,1-.235-1.333,3.875,3.875,0,0,1,3.879-3.879,3.813,3.813,0,0,1,1.327.235A7.766,7.766,0,0,1,22.553,73.67a6.756,6.756,0,0,1-.675,13.353Z" transform="translate(14533 -8325.65)" fill="#a8daff"/>
  </g>
</svg>
