<svg xmlns="http://www.w3.org/2000/svg" width="24" height="24" viewBox="0 0 24 24">
  <g id="Group_4139" data-name="Group 4139" transform="translate(-93 -250)">
    <circle id="Ellipse_37" data-name="Ellipse 37" cx="12" cy="12" r="12" transform="translate(93 250)" fill="#fbdac5"/>
    <g id="Group_4066" data-name="Group 4066" transform="translate(100 257)" opacity="0.77">
      <path id="Path_1222" data-name="Path 1222" d="M147.766,175.009a.233.233,0,0,0-.232-.232h-.812a.233.233,0,0,0-.232.232v.811a.233.233,0,0,0,.232.233h.812a.233.233,0,0,0,.232-.233v-.811Z" transform="translate(-144.146 -169.356)" fill="#c75000"/>
      <path id="Path_1224" data-name="Path 1224" d="M166.54,175.009a.233.233,0,0,0-.232-.232H165.5a.233.233,0,0,0-.232.232v.811a.233.233,0,0,0,.232.233h.812a.233.233,0,0,0,.232-.233Z" transform="translate(-158.863 -169.356)" fill="#c75000"/>
      <path id="Path_1226" data-name="Path 1226" d="M157.153,184.4a.232.232,0,0,0-.232-.233h-.812a.232.232,0,0,0-.233.233v.811a.232.232,0,0,0,.233.232h.812a.232.232,0,0,0,.232-.232Z" transform="translate(-151.505 -176.715)" fill="#c75000"/>
      <path id="Path_1223" data-name="Path 1223" d="M157.153,175.009a.233.233,0,0,0-.232-.232h-.812a.233.233,0,0,0-.233.232v.811a.233.233,0,0,0,.233.233h.812a.233.233,0,0,0,.232-.233Z" transform="translate(-151.505 -169.356)" fill="#c75000"/>
      <path id="Path_1225" data-name="Path 1225" d="M147.766,184.4a.232.232,0,0,0-.232-.233h-.812a.232.232,0,0,0-.232.233v.811a.232.232,0,0,0,.232.232h.812a.232.232,0,0,0,.232-.232V184.4Z" transform="translate(-144.146 -176.715)" fill="#c75000"/>
      <path id="Path_1227" data-name="Path 1227" d="M166.54,184.4a.232.232,0,0,0-.232-.233H165.5a.232.232,0,0,0-.232.233v.811a.232.232,0,0,0,.232.232h.812a.232.232,0,0,0,.232-.232V184.4Z" transform="translate(-158.863 -176.715)" fill="#c75000"/>
      <path id="Path_1228" data-name="Path 1228" d="M144.773,154.954v1.239a1.012,1.012,0,0,1-1.015,1.012h-.64a1.017,1.017,0,0,1-1.021-1.012V154.95h-2.885v1.244a1.017,1.017,0,0,1-1.021,1.012h-.64a1.012,1.012,0,0,1-1.014-1.012v-1.239a.923.923,0,0,0-.892.918v7.264a.923.923,0,0,0,.919.924h8.182a.924.924,0,0,0,.919-.924v-7.264A.923.923,0,0,0,144.773,154.954Zm-.3,7.729a.4.4,0,0,1-.4.4h-6.864a.4.4,0,0,1-.4-.4v-3.752a.4.4,0,0,1,.4-.4h6.864a.4.4,0,0,1,.4.4v3.752Z" transform="translate(-135.645 -153.813)" fill="#c75000"/>
      <path id="Path_1229" data-name="Path 1229" d="M143.2,152.418h.633a.348.348,0,0,0,.348-.348v-2.032a.348.348,0,0,0-.348-.348H143.2a.348.348,0,0,0-.348.348v2.032A.348.348,0,0,0,143.2,152.418Z" transform="translate(-141.291 -149.691)" fill="#c75000"/>
      <path id="Path_1230" data-name="Path 1230" d="M168.93,152.418h.633a.348.348,0,0,0,.348-.348v-2.032a.348.348,0,0,0-.348-.348h-.633a.348.348,0,0,0-.348.348v2.032A.348.348,0,0,0,168.93,152.418Z" transform="translate(-161.465 -149.691)" fill="#c75000"/>
    </g>
  </g>
</svg>
