<svg id="Group_4137" data-name="Group 4137" xmlns="http://www.w3.org/2000/svg" width="18" height="18" viewBox="0 0 18 18">
  <path id="Path_1523" data-name="Path 1523" d="M0,0H18V18H0Z" fill="none"/>
  <path id="Path_1524" data-name="Path 1524" d="M15.3,3a.684.684,0,0,1,.7.667V8.333H14.6v-4H3.4v9.333H7.6V15H2.7a.684.684,0,0,1-.7-.667V3.667A.684.684,0,0,1,2.7,3Zm0,6.667a.684.684,0,0,1,.7.667v4a.684.684,0,0,1-.7.667H9.7a.684.684,0,0,1-.7-.667v-4a.684.684,0,0,1,.7-.667ZM14.6,11H10.4v2.667h4.2Z" fill="#18191b"/>
</svg>
