<svg xmlns="http://www.w3.org/2000/svg" width="24" height="24" viewBox="0 0 24 24">
  <g id="Group_4143" data-name="Group 4143" transform="translate(-93 -361)">
    <circle id="Ellipse_40" data-name="Ellipse 40" cx="12" cy="12" r="12" transform="translate(93 361)" fill="#beeffe"/>
    <g id="Group_4069" data-name="Group 4069" transform="translate(98 366)" opacity="0.8">
      <path id="Path_1268" data-name="Path 1268" d="M562.523,427.382l2.18.8-1.813,4.937a5.628,5.628,0,0,1-1.73,2.213l-.156.424a.267.267,0,0,1-.25.175.275.275,0,0,1-.092-.017.266.266,0,0,1-.157-.342l.147-.4a5.812,5.812,0,0,1,.06-2.854Z" transform="translate(-551.935 -422.102)" fill="#077b9f"/>
      <path id="Path_1269" data-name="Path 1269" d="M575.849,399.539a1.268,1.268,0,0,0-1.5.782l-1.313,3.578,2.18.8,1.311-3.577A1.391,1.391,0,0,0,575.849,399.539Z" transform="translate(-562.106 -399.483)" fill="#077b9f"/>
      <path id="Path_1270" data-name="Path 1270" d="M565.579,405.983a.532.532,0,0,0,.684-.314l1.385-3.737a.532.532,0,0,0-1-.369l-1.385,3.737A.531.531,0,0,0,565.579,405.983Z" transform="translate(-555.78 -400.888)" fill="#077b9f"/>
      <path id="Path_1271" data-name="Path 1271" d="M522.853,427.647a2.065,2.065,0,0,0-.61-.432,1.591,1.591,0,0,0-.638-.115h-.058a.826.826,0,0,0-.642-.543,1.3,1.3,0,0,0-1,.266c.021-.119.055-.26.081-.362a2.332,2.332,0,0,0,.1-.985.567.567,0,0,0-.517-.456,2.745,2.745,0,0,0-1.672.639c-.5.336-.818.537-1.135.423-.388-.138-.427-1.188-.24-2.123a6.12,6.12,0,0,1,1.273-3.124c.268-.24.656-.5.975-.373a1.8,1.8,0,0,1,.754,1.5.565.565,0,1,0,1.126-.106,2.78,2.78,0,0,0-1.466-2.448,2,2,0,0,0-2.143.584,6.7,6.7,0,0,0-1.629,3.747c-.134.672-.458,2.9.971,3.409a2.328,2.328,0,0,0,2.146-.552c.1-.07.207-.139.306-.2a1.512,1.512,0,0,0,.094,1.219c.369.555.892.616,1.551.181l.082-.055a.768.768,0,0,0,.366.365,1.5,1.5,0,0,0,.648.127.909.909,0,0,1,.206.018.984.984,0,0,1,.291.22,3.582,3.582,0,0,0,.311.269.561.561,0,0,0,.338.112.565.565,0,0,0,.339-1.018A2.7,2.7,0,0,1,522.853,427.647Z" transform="translate(-515.284 -415.545)" fill="#077b9f"/>
    </g>
  </g>
</svg>
