<svg xmlns="http://www.w3.org/2000/svg" width="24" height="24" viewBox="0 0 24 24">
  <g id="Group_4144" data-name="Group 4144" transform="translate(-93 -399)">
    <circle id="Ellipse_41" data-name="Ellipse 41" cx="12" cy="12" r="12" transform="translate(93 399)" fill="#beeffe"/>
    <g id="Group_4070" data-name="Group 4070" transform="translate(99 404)" opacity="0.8">
      <path id="Path_1454" data-name="Path 1454" d="M256,200.307" transform="translate(-249.075 -192.989)" fill="#077b9f"/>
      <path id="Path_1454-2" data-name="Path 1454" d="M256,200.307" transform="translate(-249.075 -192.989)" fill="#077b9f"/>
      <path id="Path_1465" data-name="Path 1465" d="M256,200.307" transform="translate(-249.935 -194.398)" fill="#077b9f"/>
      <path id="Path_1466" data-name="Path 1466" d="M89.258,433.367H77.4a.449.449,0,0,0,0,.878H89.258a.449.449,0,0,0,0-.878Z" transform="translate(-77.041 -419.559)" fill="#077b9f"/>
      <path id="Path_1467" data-name="Path 1467" d="M111.7,321.065a4.827,4.827,0,0,1-4.587,1.347,3.13,3.13,0,0,1-.65-.261,1.631,1.631,0,0,0,.691.691,3.522,3.522,0,0,0,2.617.137c1.467-.431,2.421-1.478,2.328-2.471A3.141,3.141,0,0,1,111.7,321.065Z" transform="translate(-105.089 -310.347)" fill="#077b9f"/>
      <path id="Path_1468" data-name="Path 1468" d="M94.129,235.646l-.112.2a1.594,1.594,0,0,1-2.159.635l-.206-.112-.721-1.742A1.99,1.99,0,0,0,90,236.688a1.551,1.551,0,0,0,.784.92,3.576,3.576,0,0,0,2.622.142,3.894,3.894,0,0,0,1.808-1.087,1.736,1.736,0,0,0,.483-1.649,1.989,1.989,0,0,0-1.9-1.224Z" transform="translate(-89.089 -226.384)" fill="#077b9f"/>
      <path id="Path_1469" data-name="Path 1469" d="M96.347,80.882a1.436,1.436,0,0,0-1.017,1.9l1.351,3.868,1.921-.572-.5-3.948A1.437,1.437,0,0,0,96.347,80.882Z" transform="translate(-94.22 -78.293)" fill="#077b9f"/>
      <path id="Path_1268" data-name="Path 1268" d="M562.374,427.382l2.02.742-1.68,4.574a5.215,5.215,0,0,1-1.6,2.051l-.144.393a.248.248,0,0,1-.231.162.252.252,0,0,1-.085-.015.246.246,0,0,1-.146-.317l.136-.371a5.387,5.387,0,0,1,.055-2.645Z" transform="translate(-552.971 -422.49)" fill="#077b9f"/>
      <path id="Path_1269" data-name="Path 1269" d="M575.643,399.535a1.175,1.175,0,0,0-1.392.725l-1.217,3.315,2.02.741L576.269,401A1.289,1.289,0,0,0,575.643,399.535Z" transform="translate(-563.316 -399.483)" fill="#077b9f"/>
      <path id="Path_1270" data-name="Path 1270" d="M565.553,405.633a.492.492,0,0,0,.633-.291l1.284-3.463a.493.493,0,0,0-.924-.342L565.263,405A.492.492,0,0,0,565.553,405.633Z" transform="translate(-556.882 -400.912)" fill="#077b9f"/>
    </g>
  </g>
</svg>
