<svg xmlns="http://www.w3.org/2000/svg" width="24" height="24" viewBox="0 0 24 24">
  <g id="Group_4140" data-name="Group 4140" transform="translate(-93 -284)">
    <circle id="Ellipse_38" data-name="Ellipse 38" cx="12" cy="12" r="12" transform="translate(93 284)" fill="#caf5d5"/>
    <g id="Group_4071" data-name="Group 4071" transform="translate(98 290)" opacity="0.8">
      <g id="Group_4067" data-name="Group 4067" transform="translate(1)">
        <path id="Path_1236" data-name="Path 1236" d="M-29.9,384.272a.356.356,0,0,0,.355-.356v-1.343a.356.356,0,0,0-.355-.356.356.356,0,0,0-.355.356v1.343A.356.356,0,0,0-29.9,384.272Z" transform="translate(41.015 -377.173)" fill="#08bf39"/>
        <path id="Path_1233" data-name="Path 1233" d="M-61.548,415.291h-1.338a.356.356,0,0,0-.355.356.356.356,0,0,0,.355.356h1.338a.356.356,0,0,0,.355-.356A.356.356,0,0,0-61.548,415.291Z" transform="translate(68.274 -404.506)" fill="#08bf39"/>
        <path id="Path_1232" data-name="Path 1232" d="M-72.655,372.326v-2.733h.623l.993,1.011a.4.4,0,0,0,.394.091.307.307,0,0,0,.235-.281v-2.544a.331.331,0,0,0-.355-.3h-6.244a.331.331,0,0,0-.355.3v2.544a.307.307,0,0,0,.235.281.4.4,0,0,0,.394-.091l.993-1.011h.623v2.733l-.623.786a.26.26,0,0,0-.018.307.369.369,0,0,0,.313.158h3.12a.369.369,0,0,0,.313-.158.26.26,0,0,0-.018-.307Z" transform="translate(79.945 -364.349)" fill="#08bf39"/>
        <path id="Path_1234" data-name="Path 1234" d="M-80.464,353.172h-1.321a.356.356,0,0,0-.355.356v.307H-90.2v-.307a.356.356,0,0,0-.355-.356h-1.321a.356.356,0,0,0-.355.356v1.326a.356.356,0,0,0,.355.356h.306v8.042h-.306a.356.356,0,0,0-.355.356v1.326a.356.356,0,0,0,.355.357h1.321a.356.356,0,0,0,.355-.357v-.266h1.261a.356.356,0,0,0,.355-.356.356.356,0,0,0-.355-.356H-90.2v-.348a.356.356,0,0,0-.355-.356h-.306v-8.042h.306a.356.356,0,0,0,.355-.356v-.307h8.057v.307a.356.356,0,0,0,.355.356h.289v1.24a.356.356,0,0,0,.355.356.356.356,0,0,0,.355-.356v-1.24h.322a.356.356,0,0,0,.355-.356v-1.326a.356.356,0,0,0-.355-.356Z" transform="translate(92.229 -353.172)" fill="#08bf39"/>
        <path id="Path_1235" data-name="Path 1235" d="M-40.168,403.575h-.3V402.34a.357.357,0,0,0-.179-.309.352.352,0,0,0-.2-.064.356.356,0,0,0-.355.357v1.253h-.289a.356.356,0,0,0-.355.356v.348h-1.268a.356.356,0,0,0-.355.356.356.356,0,0,0,.355.356h1.268v.266a.356.356,0,0,0,.355.356h1.321a.356.356,0,0,0,.355-.356v-1.326A.356.356,0,0,0-40.168,403.575Z" transform="translate(51.933 -393.495)" fill="#08bf39"/>
      </g>
    </g>
  </g>
</svg>
